<svg width="24" height="24" viewBox="0 0 24 24" fill="none" xmlns="http://www.w3.org/2000/svg">
<path d="M0.4935 15.4995C1.24619 17.9602 2.76897 20.1142 4.8377 21.6445C6.90643 23.1747 9.41179 24.0004 11.985 24C18.621 24 24 18.627 24 12C24 5.373 18.621 8.99676e-07 11.9865 8.99676e-07C8.94041 -0.00117747 6.00769 1.15524 3.78218 3.23509C1.55668 5.31494 0.204696 8.1628 0 11.202L0.0045 11.211L6.4605 13.8645C7.04277 13.479 7.7324 13.2883 8.43 13.32L11.37 9.054L11.3685 8.994C11.3697 7.78404 11.8508 6.62397 12.7062 5.76826C13.5616 4.91255 14.7215 4.43109 15.9315 4.4295C17.1415 4.43109 18.3014 4.91255 19.1568 5.76826C20.0122 6.62397 20.4933 7.78404 20.4945 8.994C20.494 9.60199 20.3723 10.2038 20.1363 10.7641C19.9004 11.3245 19.555 11.8321 19.1205 12.2573C18.6859 12.6825 18.1709 13.0168 17.6055 13.2405C17.0402 13.4641 16.4359 13.5728 15.828 13.56L11.622 16.56C11.6363 17.1157 11.5114 17.6662 11.2587 18.1613C11.006 18.6564 10.6336 19.0805 10.1752 19.395C9.71687 19.7096 9.18716 19.9045 8.63427 19.9621C8.08138 20.0197 7.52286 19.9382 7.0095 19.725C6.51678 19.5197 6.08073 19.1988 5.73819 18.7894C5.39565 18.38 5.15669 17.8942 5.0415 17.373L0.495 15.4995H0.4935Z" fill="white"/>
<path d="M7.302 19.0246C7.92695 19.2632 8.62025 19.2489 9.23485 18.9848C9.84946 18.7208 10.337 18.2277 10.5942 17.6102C10.8514 16.9927 10.8579 16.2993 10.6123 15.677C10.3668 15.0548 9.88855 14.5526 9.279 14.2771C8.67463 14.0249 7.99655 14.0142 7.3845 14.2471L8.919 14.8831C9.14849 14.9787 9.35691 15.1185 9.53237 15.2945C9.70782 15.4706 9.84688 15.6795 9.94159 15.9094C10.0363 16.1392 10.0848 16.3854 10.0844 16.634C10.0839 16.8826 10.0345 17.1286 9.939 17.3581C9.84347 17.5876 9.70367 17.796 9.52758 17.9715C9.3515 18.1469 9.14258 18.286 8.91275 18.3807C8.68293 18.4754 8.4367 18.5239 8.18812 18.5235C7.93954 18.5231 7.69349 18.4736 7.464 18.3781L5.979 17.7631C6.24924 18.3321 6.72052 18.7809 7.302 19.0231V19.0246ZM12.891 8.99411C12.8914 9.80066 13.2118 10.5741 13.7818 11.1447C14.3518 11.7153 15.125 12.0364 15.9315 12.0376C16.738 12.0364 17.5112 11.7153 18.0812 11.1447C18.6512 10.5741 18.9716 9.80066 18.972 8.99411C18.9708 8.18809 18.6501 7.41542 18.0801 6.84547C17.5102 6.27552 16.7375 5.9548 15.9315 5.95361C15.1255 5.9548 14.3528 6.27552 13.7829 6.84547C13.2129 7.41542 12.8922 8.18809 12.891 8.99411V8.99411ZM15.936 6.70361C16.2362 6.70381 16.5334 6.76313 16.8107 6.8782C17.088 6.99326 17.3399 7.16181 17.552 7.37423C17.7641 7.58664 17.9324 7.83876 18.0471 8.11618C18.1618 8.39361 18.2207 8.69091 18.2205 8.99111C18.2203 9.29131 18.161 9.58854 18.0459 9.86581C17.9309 10.1431 17.7623 10.395 17.5499 10.6071C17.3375 10.8193 17.0854 10.9875 16.8079 11.1022C16.5305 11.2169 16.2332 11.2758 15.933 11.2756C15.3267 11.2752 14.7454 11.034 14.317 10.605C13.8886 10.176 13.6481 9.5944 13.6485 8.98811C13.6489 8.38183 13.8901 7.80053 14.3191 7.37211C14.7481 6.94368 15.3297 6.70322 15.936 6.70361V6.70361Z" fill="white"/>
</svg>
